<svg width="148" height="160" viewBox="0 0 148 160" fill="none" xmlns="http://www.w3.org/2000/svg">
<path d="M2 98.4615C2 65.5793 28.6563 38.9231 61.5385 38.9231C94.4207 38.9231 121.077 65.5793 121.077 98.4615C121.077 131.344 94.4207 158 61.5385 158C28.6563 158 2 131.344 2 98.4615Z" stroke="#FCFCFC" stroke-width="4" stroke-linecap="round"/>
<path d="M79.4664 83.6151L79.378 83.5267L79.4664 83.6151C80.3896 82.6916 80.3896 81.1896 79.4664 80.2661C79.0047 79.8043 78.3979 79.5736 77.7919 79.5736C77.1857 79.5736 76.5792 79.8045 76.1174 80.2662C75.1941 81.1894 75.1941 82.6916 76.1175 83.6151C77.0406 84.5384 78.5428 84.5386 79.4664 83.6151ZM59.8644 107.565L63.1809 110.881L56.051 118.011L52.7345 114.695L52.6461 114.606L52.5578 114.695L50.0524 117.2L49.964 117.289L50.0524 117.377L53.3688 120.693L46.239 127.823L42.9225 124.507L42.8341 124.418L42.7457 124.507L39.6983 127.554L32.1768 120.033L59.0849 93.1246L59.1486 93.0608L59.1083 92.9802C57.627 90.0216 57.0215 86.6459 57.3973 83.3338C57.839 79.4421 59.5387 75.919 62.3138 73.144C69.006 66.452 79.8949 66.452 86.5871 73.144C93.2792 79.836 93.2792 90.7252 86.587 97.4172C83.8121 100.192 80.2889 101.892 76.3972 102.334C73.0851 102.71 69.7094 102.104 66.7507 100.623L66.6701 100.582L66.6064 100.646L59.8644 107.388L59.776 107.477L59.8644 107.565ZM64.6234 75.4536L64.7118 75.542L64.6234 75.4536C60.0761 80.001 59.2313 87.0092 62.5699 92.4957L63.237 93.592L36.8845 119.944L36.7961 120.033L36.8845 120.121L39.6099 122.847L39.6983 122.935L39.7866 122.847L42.8341 119.799L46.1506 123.116L46.239 123.204L46.3273 123.116L48.6611 120.782L48.7495 120.693L48.6611 120.605L45.3447 117.289L52.6461 109.987L55.9626 113.304L56.051 113.392L56.1394 113.304L58.4733 110.97L58.5617 110.881L58.4733 110.793L55.1568 107.477L66.1391 96.4941L67.2354 97.1612C72.7219 100.5 79.7302 99.6551 84.2775 95.1077C89.6962 89.689 89.6962 80.8724 84.2775 75.4536L84.1891 75.542L84.2775 75.4536C78.8587 70.035 70.0421 70.035 64.6234 75.4536ZM73.8077 85.9248C71.611 83.7279 71.611 80.1532 73.8077 77.9565C76.0044 75.7599 79.5792 75.7598 81.7759 77.9565C83.9726 80.1532 83.9726 83.7279 81.776 85.9247C80.6777 87.023 79.2349 87.5723 77.7918 87.5723C76.3486 87.5723 74.9061 87.023 73.8077 85.9248Z" fill="#FCFCFC" stroke="#FCFCFC" stroke-width="0.25"/>
<circle cx="129.235" cy="18.4615" r="16.4615" stroke="#FCFCFC" stroke-width="4"/>
</svg>
