<svg width="148" height="160" viewBox="0 0 148 160" fill="none" xmlns="http://www.w3.org/2000/svg">
<path d="M2 98.4616C2 65.5794 28.6563 38.9231 61.5385 38.9231C94.4207 38.9231 121.077 65.5794 121.077 98.4616C121.077 131.344 94.4207 158 61.5385 158C28.6563 158 2 131.344 2 98.4616Z" stroke="white" stroke-width="4" stroke-linecap="round"/>
<g clip-path="url(#clip0)">
<path d="M79.3842 98.5772V99.0772H79.8842H90.2688C90.9483 99.0772 91.4994 99.6284 91.4994 100.308C91.4994 100.988 90.9483 101.539 90.2687 101.539H79.8841H79.3841V102.039V105.637V106.064L79.8054 106.131C84.7916 106.926 88.6148 111.256 88.6148 116.462V118.769C88.6148 119.449 88.0637 120 87.3841 120C86.7045 120 86.1534 119.449 86.1534 118.769V116.462C86.1534 112.684 83.5228 109.515 79.9996 108.679L79.3842 108.533V109.166V110.116C79.3842 119.701 71.5851 127.5 61.9998 127.5C52.4145 127.5 44.6153 119.701 44.6152 110.115V109.165V108.533L43.9998 108.679C40.4766 109.515 37.8461 112.684 37.8461 116.461V118.769C37.8461 119.449 37.295 120 36.6153 120C35.9357 120 35.3846 119.449 35.3846 118.769V116.461C35.3846 111.256 39.2078 106.925 44.194 106.131L44.6153 106.064V105.637V102.038V101.538H44.1153H33.7307C33.0511 101.538 32.5 100.987 32.5 100.308C32.5 99.6281 33.0511 99.077 33.7307 99.077H44.1155H44.6155V98.577V94.9784V94.5517L44.1942 94.4846C39.208 93.6902 35.3848 89.3593 35.3848 84.154V81.8464C35.3848 81.1667 35.9359 80.6156 36.6155 80.6156C37.2952 80.6156 37.8463 81.1667 37.8463 81.8464V84.154C37.8463 87.9314 40.4769 91.101 44 91.9367L44.6154 92.0827V91.4502V89.9233C44.6154 88.6088 45.6856 87.5387 47 87.5387H48.7307H49.2307V87.0387V80.6926C49.2307 77.2961 51.6644 74.4559 54.8804 73.8247L55.4956 73.704L55.241 73.131L53.9522 70.2311C53.6761 69.61 53.9559 68.8826 54.577 68.6066L54.577 68.6066C55.198 68.3306 55.9255 68.6104 56.2014 69.2314L56.6584 69.0284L56.2014 69.2314L58.0522 73.3961L58.1842 73.693H58.5091H65.4903H65.8152L65.9472 73.3961L67.7981 69.2317L67.7981 69.2317C68.0741 68.6105 68.8013 68.3307 69.4225 68.6068L69.4226 68.6069C70.0437 68.8829 70.3235 69.6103 70.0474 70.2313L70.0474 70.2313L68.7586 73.1313L68.5039 73.7042L69.1192 73.825C72.3352 74.456 74.7689 77.2964 74.7689 80.6929V87.0389V87.5389H75.2689H76.9998C78.3142 87.5389 79.3843 88.6091 79.3843 89.9235V91.4505V92.083L79.9998 91.937C83.5229 91.1011 86.1535 87.9316 86.1535 84.1543V81.8466C86.1535 81.167 86.7046 80.6159 87.3842 80.6159C88.0639 80.6159 88.615 81.167 88.615 81.8466V84.1543C88.615 89.3596 84.7917 93.6906 79.8056 94.4848L79.3842 94.552V94.9786V98.5772ZM71.8073 87.5388H72.3073V87.0388V80.6928C72.3073 78.1898 70.2718 76.1544 67.7689 76.1544H56.2305C53.7276 76.1544 51.6921 78.1898 51.6921 80.6928V87.0388V87.5388H52.1921H71.8073ZM47.5768 90.0004H47.0768V90.5004V110.116C47.0768 118.345 53.7708 125.039 61.9998 125.039C70.2287 125.039 76.9227 118.345 76.9227 110.116V90.5004V90.0004H76.4227H63.7305H63.2305V90.5004V107.231C63.2305 107.911 62.6794 108.462 61.9998 108.462C61.3201 108.462 60.769 107.911 60.769 107.231V90.5004V90.0004H60.269H47.5768Z" fill="white" stroke="white"/>
</g>
<circle cx="129.235" cy="18.4615" r="16.4615" stroke="white" stroke-width="4"/>
<defs>
<clipPath id="clip0">
<rect width="60" height="60" fill="white" transform="translate(32 68)"/>
</clipPath>
</defs>
</svg>
