<svg width="24" height="24" viewBox="0 0 24 24" fill="none" xmlns="http://www.w3.org/2000/svg">
<circle cx="12" cy="12" r="12" fill="#D7E8FF"/>
<path d="M10.5664 16.7844C9.28512 17.2071 7.7328 17.2515 7.1168 17.2208L5.7616 19.5866L5 20C5.0672 19.8354 5.32704 19.2788 5.8288 18.3693C6.456 17.2323 7.4864 15.5671 10.208 12.2942C12.3853 9.67577 14.8112 7.65839 15.752 6.977C14.9941 7.43637 12.5107 9.05782 10.5664 11.0698C8.62208 13.0819 7.26613 15.2992 6.5904 16.2562C6.63893 15.8198 6.8704 14.6438 7.408 13.4311C8.08 11.9152 9.368 9.19344 12.5824 6.86216C15.1539 4.99714 17.9323 4.88306 19 5.05915L18.3168 7.44785C18.272 7.44785 18.0189 7.46163 17.3648 7.51675C16.7107 7.57188 16.0693 7.68519 15.8304 7.73495C15.8901 7.73495 16.1619 7.74873 16.7712 7.80386C17.3805 7.85898 17.936 7.96463 18.1376 8.01057C18.0181 8.424 17.5574 9.69644 16.6704 11.4788C15.7834 13.2611 14.5013 14.5336 13.9712 14.947C13.6763 14.8245 12.8714 14.5473 12.0112 14.4187C11.151 14.2901 9.9952 14.2426 9.5248 14.235C9.72267 14.2656 10.3043 14.3912 11.048 14.6484C11.7917 14.9056 12.784 15.3681 13.1872 15.5671C12.8475 15.7968 11.8477 16.3618 10.5664 16.7844Z" fill="#1C6CD5"/>
</svg>
